<svg height="1240" viewBox="0 0 1240 1240" width="1240" xmlns="http://www.w3.org/2000/svg"><g fill="none" fill-rule="evenodd" stroke="#979797" stroke-width="50"><path d="m900 434.300029-139.724607-157.300029h-296.279394c-2.209139 0-4 1.790861-4 4v564.00562c0 2.209139 1.790861 4 4 4h432.004001c2.209139 0 4-1.790861 4-4z"/><path d="m900 456h-123c-19.882251 0-36-16.117749-36-36v-143h-277c-2.209139 0-4 1.790861-4 4v564c0 2.209139 1.790861 4 4 4h432c2.209139 0 4-1.790861 4-4z"/><path d="m442 397h-63c-22.09139 0-40 17.90861-40 40v486c0 22.091391 17.90861 40 40 40h331c22.09139 0 40-17.908609 40-40v-57" stroke-linecap="round" stroke-linejoin="round"/></g></svg>